<?xml version="1.0" encoding="utf-8"?>
<!-- Generator: Adobe Illustrator 24.1.3, SVG Export Plug-In . SVG Version: 6.00 Build 0)  -->
<svg version="1.1"
	 id="svg1650" sodipodi:docname="New document 15" xmlns:cc="http://creativecommons.org/ns#" xmlns:dc="http://purl.org/dc/elements/1.1/" xmlns:inkscape="http://www.inkscape.org/namespaces/inkscape" xmlns:rdf="http://www.w3.org/1999/02/22-rdf-syntax-ns#" xmlns:sodipodi="http://sodipodi.sourceforge.net/DTD/sodipodi-0.dtd" xmlns:svg="http://www.w3.org/2000/svg"
	 xmlns="http://www.w3.org/2000/svg" xmlns:xlink="http://www.w3.org/1999/xlink" x="0px" y="0px" viewBox="0 0 419.1 403.6"
	 style="enable-background:new 0 0 419.1 403.6;" xml:space="preserve">
<style type="text/css">
	.st0{fill:#909090;}
</style>
<sodipodi:namedview  bordercolor="#666666" borderopacity="1.0" fit-margin-bottom="0" fit-margin-left="0" fit-margin-right="0" fit-margin-top="0" id="base" inkscape:current-layer="layer1" inkscape:cx="253.04816" inkscape:cy="133.69779" inkscape:document-units="px" inkscape:pageopacity="0.0" inkscape:pageshadow="2" inkscape:window-height="952" inkscape:window-maximized="1" inkscape:window-width="1280" inkscape:window-x="0" inkscape:window-y="24" inkscape:zoom="0.69842875" pagecolor="#ffffff" showgrid="false">
	</sodipodi:namedview>
<g id="layer1" transform="translate(-118.99908,-256.27405)" inkscape:groupmode="layer" inkscape:label="Layer 1">
	<g id="XMLID_1_">
		<g>
			<path class="st0" d="M497.8,377.4c27.9,1.4,42.6,31.8,40,56.9c-1.2,37.9-29.3,81.9-70.5,82.4c-29.6-2.1-43.4-36.7-38.3-62.6
				C432.9,418.2,459.3,379.7,497.8,377.4z"/>
			<path class="st0" d="M457.7,568.7c10.4,20.8,23.1,45.8,14.5,69.2c-10.9,23-40.4,26.5-61.8,17.3c-25.1-9.5-50.1-24-77.9-19.8
				c-32.9,1.7-61.3,24.4-94.3,23.5c-27.5-0.2-47.3-29.8-38.6-55.5c7.2-35.7,25.6-68.6,48.1-96.9c20.8-24.3,53.4-40.6,85.6-40.7
				c15.7,0,31.3,3.8,45.3,12.5C413.5,499.4,436.4,534.9,457.7,568.7z"/>
			<path class="st0" d="M449,308.9c5.8,39.3-12.1,86.8-52.2,100.2c-4.7,1.3-9.7,1.7-14.6,0.8c-33.3-6.8-46.6-45.8-42.5-76.1
				c2.9-33.4,22.5-71.3,58.4-77.5c0.9-0.1,1.8-0.1,2.7-0.1C428.1,255.9,447.3,283.5,449,308.9z"/>
			<path class="st0" d="M314.7,345.3c1.2,26.8-11.3,60-40.9,65c-4.1,0.6-8.4,0.5-12.5-0.3c-43.8-13.3-63-65.6-55.5-107.7
				c3.5-21.2,20.9-43.8,43.2-44.4c3.2-0.1,6.4,0.3,9.8,1.2C295.4,269,313.8,309.9,314.7,345.3z"/>
			<path class="st0" d="M179.3,390.9c36,17.7,57.3,62.9,46.9,101.9c-4.9,18.2-22.2,33.3-41.9,30c-47.2-9.4-75.9-65.8-61.6-110.4
				c5.3-16.7,21.5-26.5,37.9-26.3C167,386,173.4,387.6,179.3,390.9z"/>
		</g>
		<g>
		</g>
	</g>
</g>
</svg>
