<?xml version="1.0" encoding="UTF-8"?>
<svg width="475.071" height="475.071" xmlns="http://www.w3.org/2000/svg" xmlns:svg="http://www.w3.org/2000/svg">
 <title>android</title>
 <g>
  <title>Layer 1</title>
  <g id="svg_1">
   <g id="svg_2">
    <path stroke-width="5" stroke="#ff0000" fill="red" id="svg_3" d="m65.947,153.884c-8.183,0 -15.136,2.853 -20.844,8.566c-5.708,5.711 -8.564,12.562 -8.564,20.555l0,122.772c0,8.179 2.855,15.126 8.564,20.837c5.708,5.712 12.657,8.562 20.841,8.562c8.186,0 15.085,-2.851 20.699,-8.562c5.618,-5.711 8.425,-12.658 8.425,-20.837l0,-122.772c0,-7.996 -2.857,-14.847 -8.565,-20.555c-5.709,-5.71 -12.564,-8.566 -20.556,-8.566z"/>
    <path stroke-width="5" stroke="#ff0000" fill="red" id="svg_4" d="m106.494,349.457c0,8.754 3.046,16.177 9.136,22.269c6.091,6.085 13.512,9.13 22.27,9.13l21.128,0l0.288,64.81c0,8.186 2.855,15.129 8.564,20.841c5.708,5.711 12.562,8.565 20.555,8.565c8.188,0 15.133,-2.854 20.844,-8.565c5.711,-5.712 8.564,-12.655 8.564,-20.841l0,-64.81l39.397,0l0,64.81c0,8.186 2.854,15.129 8.562,20.841c5.715,5.711 12.662,8.565 20.848,8.565c8.179,0 15.126,-2.854 20.834,-8.565c5.708,-5.712 8.559,-12.655 8.559,-20.841l0,-64.81l21.416,0c8.56,0 15.89,-3.039 21.98,-9.13c6.092,-6.092 9.138,-13.515 9.138,-22.269l0,-190.149l-262.083,0l0,190.149z"/>
    <path stroke-width="5" stroke="#ff0000" fill="red" id="svg_5" d="m302.345,43.682l20.265,-37.403c1.335,-2.474 0.855,-4.377 -1.424,-5.708c-2.478,-1.143 -4.38,-0.572 -5.708,1.714l-20.56,37.685c-18.082,-7.994 -37.205,-11.991 -57.384,-11.991c-20.174,0 -39.304,3.997 -57.387,11.991l-20.556,-37.684c-1.328,-2.286 -3.234,-2.857 -5.708,-1.714c-2.285,1.331 -2.758,3.234 -1.426,5.708l20.271,37.402c-20.559,10.467 -36.923,25.076 -49.108,43.824c-12.181,18.749 -18.273,39.259 -18.273,61.525l264.095,0c0,-22.266 -6.091,-42.777 -18.273,-61.525c-12.187,-18.748 -28.452,-33.358 -48.824,-43.824zm-117.201,54.386c-2.187,2.19 -4.803,3.284 -7.849,3.284c-3.046,0 -5.614,-1.093 -7.71,-3.284c-2.091,-2.187 -3.14,-4.805 -3.14,-7.85c0,-3.046 1.049,-5.664 3.14,-7.854c2.093,-2.19 4.665,-3.282 7.71,-3.282c3.042,0 5.659,1.091 7.849,3.282c2.19,2.19 3.284,4.808 3.284,7.854c0,3.046 -1.094,5.66 -3.284,7.85zm120.345,0c-2.098,2.19 -4.668,3.284 -7.713,3.284c-3.046,0 -5.657,-1.093 -7.848,-3.284c-2.19,-2.187 -3.281,-4.805 -3.281,-7.85c0,-3.046 1.091,-5.664 3.281,-7.854c2.19,-2.19 4.802,-3.282 7.848,-3.282c3.045,0 5.615,1.091 7.713,3.282c2.088,2.19 3.139,4.808 3.139,7.854c0,3.046 -1.048,5.66 -3.139,7.85z"/>
    <path stroke-width="5" stroke="#ff0000" fill="red" id="svg_6" d="m429.964,162.306c-5.708,-5.614 -12.655,-8.422 -20.841,-8.422c-7.991,0 -14.843,2.808 -20.551,8.422c-5.711,5.616 -8.568,12.517 -8.568,20.699l0,122.772c0,8.179 2.857,15.126 8.568,20.837c5.708,5.712 12.56,8.562 20.551,8.562c8.186,0 15.133,-2.851 20.841,-8.562c5.715,-5.711 8.568,-12.658 8.568,-20.837l0,-122.772c0,-8.183 -2.853,-15.084 -8.568,-20.699z"/>
   </g>
  </g>
  <g id="svg_7"/>
  <g id="svg_8"/>
  <g id="svg_9"/>
  <g id="svg_10"/>
  <g id="svg_11"/>
  <g id="svg_12"/>
  <g id="svg_13"/>
  <g id="svg_14"/>
  <g id="svg_15"/>
  <g id="svg_16"/>
  <g id="svg_17"/>
  <g id="svg_18"/>
  <g id="svg_19"/>
  <g id="svg_20"/>
  <g id="svg_21"/>
 </g>
</svg>